<svg width="16" height="16" fill="none" xmlns="http://www.w3.org/2000/svg"><path fill-rule="evenodd" clip-rule="evenodd" d="M16 8c0 4.4183-3.5817 8-8 8s-8-3.5817-8-8 3.5817-8 8-8 8 3.5817 8 8ZM8.3923 9.9832H7.914s-1.0551.0557-1.9842-.792c-1.0133-.9248-1.9082-2.7599-1.9082-2.7599S3.97 6.311 4.026 6.253c.063-.0654.2346-.0696.2346-.0696l1.143-.0066s.1078.0158.185.0654c.0635.041.099.1175.099.1175s.1848.4095.4295.78c.4775.7232.7.8814.8621.8039.2362-.113.1654-1.0224.1654-1.0224s.0044-.3301-.1189-.477c-.0955-.114-.2755-.1472-.355-.1566-.0643-.0075.0412-.1384.178-.1971.2058-.0884.569-.0934.9983-.0895.3344.003.4306.0212.5614.049.3033.0641.2939.2699.2735.7137a9.6974 9.6974 0 0 0-.0132.4643c0 .04-.0013.0826-.0027.1264-.0071.2274-.0152.4876.1555.5843.0875.0495.3017.0075.8373-.7897.254-.3778.4443-.822.4443-.822s.0416-.0793.1063-.1132c.0661-.0347.1553-.024.1553-.024l1.2029-.0066s.3614-.0378.42.1052c.0613.15-.1351.5006-.6266 1.0746-.4635.5415-.6904.7429-.6725.9195.0132.1308.1607.248.4457.48.5922.4817.75.7346.7875.7947a.3258.3258 0 0 0 .0069.0108c.265.3852-.2939.4154-.2939.4154l-1.0683.013s-.2296.0399-.5318-.142c-.158-.095-.3125-.2503-.4597-.3982-.225-.226-.4329-.435-.6104-.3857-.2978.0828-.2884.6452-.2884.6452s.0021.1201-.0657.184c-.0738.0698-.2182.0837-.2182.0837Z" fill="#2D3440"/></svg>