<svg width="24" height="24" fill="none" xmlns="http://www.w3.org/2000/svg"><path d="M12.0259 1.202c.8761-.0002 1.7369.2232 2.4961.6479.7593.4246 1.3902 1.0357 1.8298 1.7718.4395.7362.6722 1.5716.6747 2.4226.0024.851-.2254 1.6877-.6607 2.4262.302.0419.586.1646.8201.3544.2342.1898.4093.4392.5058.7203.0964.281.1104.5826.0403.8709a1.583 1.583 0 0 1-.437.7615 1.6566 1.6566 0 0 1-.784.4246 1.6892 1.6892 0 0 1-.8967-.0392 1.6446 1.6446 0 0 1-.7415-.4913 1.5736 1.5736 0 0 1-.3649-.7965c-.0619.0343-.1255.0669-.1892.0996-.0884.5287-.3676 1.0097-.7877 1.3568-.4201.3471-.9536.5377-1.5051.5377-.5515 0-1.085-.1906-1.5051-.5377-.4201-.3471-.6993-.8281-.7877-1.3568-.0637-.0327-.1273-.0653-.1892-.0996a1.574 1.574 0 0 1-.365.7973 1.6458 1.6458 0 0 1-.7423.4915 1.689 1.689 0 0 1-.8974.0386 1.6564 1.6564 0 0 1-.7841-.4258 1.5837 1.5837 0 0 1-.4362-.7629 1.5514 1.5514 0 0 1 .0423-.8716 1.5947 1.5947 0 0 1 .5082-.7196 1.6662 1.6662 0 0 1 .8218-.3522c-.435-.7382-.6628-1.5744-.6606-2.425.0023-.8505.2344-1.6855.6734-2.4215.4389-.736 1.0691-1.3472 1.8276-1.7722.7585-.425 1.6186-.6491 2.4943-.6498Zm0-1.202a6.3856 6.3856 0 0 0-2.825.6554c-.8753.4314-1.6335 1.0574-2.2127 1.8272-.5793.7698-.9632 1.6616-1.1205 2.6027a5.8903 5.8903 0 0 0 .2148 2.8134c-.5787.4482-.9571 1.096-1.0565 1.8084-.0993.7124.0881 1.4346.5232 2.0162.4352.5815 1.0846.9776 1.8129 1.1058.7283.1281 1.4794-.0215 2.097-.4179a3.5782 3.5782 0 0 0 1.1754.7861 3.6663 3.6663 0 0 0 1.3985.2768c.4805 0 .9561-.0942 1.3984-.2768a3.579 3.579 0 0 0 1.1755-.7861c.6178.3734 1.3583.5054 2.0723.3692.714-.1361 1.3483-.5302 1.7749-1.1027.4266-.5726.6138-1.2809.5238-1.9823-.09-.7013-.4504-1.3434-1.0087-1.7967a5.889 5.889 0 0 0 .2149-2.8134c-.1573-.9411-.5413-1.8329-1.1205-2.6027S15.7262 1.0868 14.8508.6554A6.3853 6.3853 0 0 0 12.0259 0Z" fill="#2D3440"/><path d="M16.1325 13.5325a3.6408 3.6408 0 0 1-1.4142-.2885c-.0655.0516-.1344.0979-.2033.146l.0937.0893-.6895.6697-.2952-.2868a4.4624 4.4624 0 0 1-.373.1236l.4172.4053-.6877.6696-.693-.6696.274-.2662a4.541 4.541 0 0 1-.5303.0344 4.2117 4.2117 0 0 1-.5144-.0327l.2722.2645-.6894.6696-.6895-.6696.4137-.4018a3.8835 3.8835 0 0 1-.3713-.1237l-.2969.2834-.6966-.6697.0867-.0842c-.0725-.0497-.1432-.0978-.2122-.1511a3.641 3.641 0 0 1-1.4142.2885h-.106a.5798.5798 0 0 0 .0282.2782l3.6028 9.8081a.284.284 0 0 0 .0141.0343.2109.2109 0 0 0 .0177.0344.8994.8994 0 0 0 .0407.0687l.0159.0223a.6152.6152 0 0 0 .0725.079l.0176.0137.069.0515.0318.0172a.603.603 0 0 0 .076.0343h.0195l.0707.0172h.0283a.5725.5725 0 0 0 .198 0h.03l.0689-.0172h.0301a.7124.7124 0 0 0 .0742-.0343l.0319-.0189a.3899.3899 0 0 0 .0689-.0498l.0195-.0137a.772.772 0 0 0 .0724-.079l.0142-.0223a.559.559 0 0 0 .0424-.0687l.0318-.0687 3.6099-9.8133a.5605.5605 0 0 0 .0283-.2781c-.0354 0-.0619.0051-.1061.0051Zm-2.4749 2.6839-.6895.6696-.6806-.6696.6877-.6697.6824.6697Zm-2.3141.9117.6895-.6696.6894.6696-.6894.6697-.6895-.6697Zm1.3789 1.8253-.6894.6697-.6895-.6697.6895-.6696.6894.6696Zm-.6894-4.3185.6894.6697-.6894.6645-.6895-.6697.6895-.6645Zm-.2493 1.5815-.6894.6696-.6895-.6696.6895-.6697.6894.6697Zm-2.6358-2.428.0672-.0653.6894.668-.3942.376-.3624-.9787Zm.488 1.3445.5126-.498.6877.6697-.6806.6645-.3165-.3074-.2033-.5288Zm.5002 1.3513.0195-.0189.6876.6697-.3447.3434-.3624-.9942Zm.7372 2.0176-.251-.6868.4649-.4499.6894.6697-.6823.6817-.221-.2147Zm.6063 1.6519-.3305-.8964.6275.6079-.297.2885Zm.5392 1.4698-.4083-1.1127.4154-.4035.4048.3932-.4119 1.123Zm.5445-1.4801-.2758-.2782.6028-.5872-.327.8654Zm.6081-1.6193-.1997.1924-.6842-.6766.6877-.6679.4543.4395-.2581.7126Zm.3925-1.0697-.3341-.3263.6894-.6696v.0086l-.3553.9873Zm.6488-1.7669-.3006.2816-.6894-.6697.6894-.6697.4968.4929-.1962.5649Zm.3323-.9204-.3836-.3743.6894-.6697.0566.055-.3624.989Z" fill="#2D3440"/></svg>